<?xml version="1.0" encoding="utf-8"?>
<!-- Generator: Adobe Illustrator 26.5.2, SVG Export Plug-In . SVG Version: 6.00 Build 0)  -->
<svg version="1.1" id="Layer_1" xmlns="http://www.w3.org/2000/svg" xmlns:xlink="http://www.w3.org/1999/xlink" x="0px" y="0px"
	 viewBox="0 0 150 150" style="enable-background:new 0 0 150 150;" xml:space="preserve">
<style type="text/css">
	.st0{fill:#FFFFFF;}
	.st1{fill:none;stroke:#1D72B6;stroke-width:1.2;stroke-linecap:round;stroke-linejoin:round;stroke-miterlimit:10;}
	.st2{fill:#474848;}
	.st3{fill:#1D72B6;}
	.st4{fill:#FFFFFF;stroke:#1D72B6;stroke-width:1.2;stroke-linecap:round;stroke-linejoin:round;stroke-miterlimit:10;}
</style>
<path class="st0" d="M145.65,149.96h-141c-2.42,0-4.38-1.96-4.38-4.38v-141c0-2.42,1.96-4.38,4.38-4.38h141
	c2.42,0,4.38,1.96,4.38,4.38v141C150.03,148,148.07,149.96,145.65,149.96z"/>
<g>
	<g>
		<path class="st2" d="M7.2,113.67h2.91c1.35,0,2.33,0.2,2.93,0.59c0.6,0.39,0.9,1.02,0.9,1.87c0,0.57-0.15,1.05-0.44,1.43
			c-0.29,0.38-0.72,0.62-1.28,0.72v0.07c0.69,0.13,1.2,0.39,1.52,0.77s0.49,0.9,0.49,1.55c0,0.88-0.31,1.57-0.92,2.07
			s-1.47,0.75-2.57,0.75H7.2V113.67z M8.81,117.72h1.54c0.67,0,1.16-0.11,1.47-0.32c0.31-0.21,0.46-0.57,0.46-1.08
			c0-0.46-0.17-0.79-0.5-1c-0.33-0.21-0.86-0.31-1.59-0.31H8.81V117.72z M8.81,119.02v3.11h1.7c0.67,0,1.18-0.13,1.52-0.39
			c0.34-0.26,0.51-0.66,0.51-1.22c0-0.51-0.17-0.89-0.52-1.13c-0.35-0.25-0.88-0.37-1.59-0.37H8.81z"/>
		<path class="st2" d="M20.75,123.48l-0.32-1.03h-0.05c-0.36,0.45-0.72,0.76-1.08,0.92c-0.36,0.16-0.83,0.24-1.4,0.24
			c-0.73,0-1.3-0.2-1.71-0.59c-0.41-0.39-0.61-0.95-0.61-1.67c0-0.77,0.28-1.34,0.85-1.73c0.57-0.39,1.43-0.6,2.6-0.64l1.28-0.04
			v-0.4c0-0.47-0.11-0.83-0.33-1.06c-0.22-0.24-0.56-0.35-1.03-0.35c-0.38,0-0.75,0.06-1.09,0.17c-0.35,0.11-0.68,0.24-1.01,0.4
			l-0.51-1.13c0.4-0.21,0.84-0.37,1.32-0.48c0.48-0.11,0.93-0.16,1.36-0.16c0.94,0,1.66,0.21,2.14,0.62
			c0.48,0.41,0.72,1.06,0.72,1.94v5H20.75z M18.4,122.41c0.57,0,1.03-0.16,1.38-0.48c0.35-0.32,0.52-0.77,0.52-1.35v-0.64
			l-0.95,0.04c-0.74,0.03-1.28,0.15-1.62,0.37s-0.51,0.56-0.51,1.02c0,0.33,0.1,0.59,0.3,0.77
			C17.71,122.32,18.01,122.41,18.4,122.41z"/>
		<path class="st2" d="M25.66,123.48h-1.58v-10.44h1.58V123.48z"/>
		<path class="st2" d="M29.49,123.48h-1.58v-10.44h1.58V123.48z"/>
		<path class="st2" d="M36.39,123.48l-0.32-1.03h-0.05c-0.36,0.45-0.72,0.76-1.08,0.92c-0.36,0.16-0.83,0.24-1.4,0.24
			c-0.73,0-1.3-0.2-1.71-0.59c-0.41-0.39-0.61-0.95-0.61-1.67c0-0.77,0.28-1.34,0.85-1.73c0.57-0.39,1.43-0.6,2.6-0.64l1.28-0.04
			v-0.4c0-0.47-0.11-0.83-0.33-1.06c-0.22-0.24-0.56-0.35-1.03-0.35c-0.38,0-0.75,0.06-1.09,0.17c-0.35,0.11-0.68,0.24-1.01,0.4
			l-0.51-1.13c0.4-0.21,0.84-0.37,1.32-0.48c0.48-0.11,0.93-0.16,1.36-0.16c0.94,0,1.66,0.21,2.14,0.62
			c0.48,0.41,0.72,1.06,0.72,1.94v5H36.39z M34.04,122.41c0.57,0,1.03-0.16,1.38-0.48c0.35-0.32,0.52-0.77,0.52-1.35v-0.64
			l-0.95,0.04c-0.74,0.03-1.28,0.15-1.62,0.37s-0.51,0.56-0.51,1.02c0,0.33,0.1,0.59,0.3,0.77
			C33.35,122.32,33.65,122.41,34.04,122.41z"/>
		<path class="st2" d="M44.7,121.37c0,0.72-0.26,1.28-0.79,1.67c-0.53,0.39-1.28,0.58-2.27,0.58c-0.99,0-1.78-0.15-2.38-0.45v-1.36
			c0.87,0.4,1.68,0.6,2.44,0.6c0.97,0,1.46-0.29,1.46-0.88c0-0.19-0.05-0.34-0.16-0.47c-0.11-0.12-0.28-0.25-0.53-0.39
			c-0.25-0.13-0.59-0.29-1.03-0.46c-0.85-0.33-1.43-0.66-1.74-0.99c-0.3-0.33-0.45-0.76-0.45-1.29c0-0.64,0.26-1.13,0.77-1.48
			c0.51-0.35,1.21-0.53,2.09-0.53c0.87,0,1.7,0.18,2.48,0.53l-0.51,1.19c-0.8-0.33-1.47-0.5-2.02-0.5c-0.83,0-1.25,0.24-1.25,0.71
			c0,0.23,0.11,0.43,0.33,0.59s0.69,0.38,1.42,0.66c0.61,0.24,1.06,0.45,1.33,0.65s0.48,0.42,0.62,0.68
			C44.64,120.7,44.7,121.01,44.7,121.37z"/>
		<path class="st2" d="M49.17,122.34c0.38,0,0.77-0.06,1.15-0.18v1.19c-0.17,0.08-0.4,0.14-0.67,0.19
			c-0.28,0.05-0.56,0.08-0.86,0.08c-1.49,0-2.24-0.79-2.24-2.36v-4h-1.01v-0.7l1.09-0.58l0.54-1.57h0.97v1.65h2.11v1.19h-2.11v3.97
			c0,0.38,0.1,0.66,0.29,0.84C48.61,122.25,48.86,122.34,49.17,122.34z"/>
		<path class="st2" d="M59.72,114.9c-0.92,0-1.65,0.33-2.17,0.98c-0.53,0.65-0.79,1.55-0.79,2.7c0,1.2,0.25,2.11,0.76,2.73
			s1.24,0.93,2.21,0.93c0.42,0,0.82-0.04,1.21-0.12c0.39-0.08,0.79-0.19,1.21-0.32v1.38c-0.77,0.29-1.64,0.44-2.62,0.44
			c-1.44,0-2.54-0.43-3.31-1.3c-0.77-0.87-1.15-2.12-1.15-3.73c0-1.02,0.19-1.91,0.56-2.68c0.37-0.77,0.91-1.35,1.62-1.76
			s1.54-0.61,2.49-0.61c1,0,1.93,0.21,2.78,0.63l-0.58,1.33c-0.33-0.16-0.68-0.29-1.05-0.41C60.52,114.96,60.13,114.9,59.72,114.9z"
			/>
		<path class="st2" d="M70.67,119.75c0,1.21-0.31,2.16-0.93,2.84c-0.62,0.68-1.49,1.02-2.6,1.02c-0.69,0-1.31-0.16-1.84-0.47
			c-0.53-0.31-0.94-0.76-1.23-1.35c-0.29-0.59-0.43-1.27-0.43-2.04c0-1.2,0.31-2.14,0.93-2.82c0.62-0.68,1.49-1.01,2.61-1.01
			c1.07,0,1.92,0.35,2.55,1.04C70.36,117.65,70.67,118.58,70.67,119.75z M65.27,119.75c0,1.71,0.63,2.57,1.9,2.57
			c1.25,0,1.88-0.86,1.88-2.57c0-1.7-0.63-2.54-1.89-2.54c-0.66,0-1.14,0.22-1.44,0.66S65.27,118.94,65.27,119.75z"/>
		<path class="st2" d="M78.74,123.48h-1.58v-4.58c0-0.57-0.11-0.99-0.32-1.27c-0.21-0.28-0.55-0.42-1.01-0.42
			c-0.61,0-1.05,0.2-1.34,0.59c-0.28,0.4-0.43,1.05-0.43,1.98v3.7h-1.58v-7.42h1.23l0.22,0.97h0.08c0.21-0.35,0.5-0.63,0.9-0.82
			c0.39-0.19,0.82-0.29,1.29-0.29c1.14,0,1.9,0.39,2.27,1.17h0.11c0.22-0.37,0.53-0.65,0.93-0.86c0.4-0.21,0.85-0.31,1.37-0.31
			c0.89,0,1.53,0.22,1.94,0.67s0.61,1.13,0.61,2.05v4.84h-1.58v-4.58c0-0.57-0.11-0.99-0.33-1.27c-0.22-0.28-0.55-0.42-1.01-0.42
			c-0.61,0-1.06,0.19-1.34,0.57c-0.28,0.38-0.43,0.97-0.43,1.76V123.48z"/>
		<path class="st2" d="M89.39,123.61c-0.94,0-1.67-0.34-2.19-1.01h-0.09c0.06,0.63,0.09,1.01,0.09,1.14v3.04h-1.58v-10.72h1.27
			c0.04,0.14,0.11,0.47,0.22,0.99h0.08c0.49-0.75,1.23-1.13,2.21-1.13c0.93,0,1.65,0.34,2.16,1.01c0.52,0.67,0.78,1.61,0.78,2.83
			c0,1.21-0.26,2.16-0.79,2.84C91.04,123.27,90.32,123.61,89.39,123.61z M89.01,117.21c-0.63,0-1.08,0.18-1.37,0.55
			c-0.29,0.37-0.43,0.95-0.43,1.76v0.24c0,0.9,0.14,1.56,0.43,1.96c0.29,0.41,0.75,0.61,1.4,0.61c0.55,0,0.97-0.22,1.26-0.67
			c0.3-0.45,0.44-1.08,0.44-1.91c0-0.83-0.15-1.46-0.44-1.89C90.01,117.42,89.58,117.21,89.01,117.21z"/>
		<path class="st2" d="M98.83,123.48l-0.32-1.03h-0.05c-0.36,0.45-0.72,0.76-1.08,0.92c-0.36,0.16-0.83,0.24-1.4,0.24
			c-0.73,0-1.3-0.2-1.71-0.59s-0.61-0.95-0.61-1.67c0-0.77,0.28-1.34,0.85-1.73c0.57-0.39,1.43-0.6,2.6-0.64l1.28-0.04v-0.4
			c0-0.47-0.11-0.83-0.33-1.06c-0.22-0.24-0.56-0.35-1.03-0.35c-0.38,0-0.75,0.06-1.09,0.17c-0.35,0.11-0.68,0.24-1.01,0.4
			l-0.51-1.13c0.4-0.21,0.84-0.37,1.32-0.48c0.48-0.11,0.93-0.16,1.36-0.16c0.94,0,1.66,0.21,2.14,0.62
			c0.48,0.41,0.72,1.06,0.72,1.94v5H98.83z M96.48,122.41c0.57,0,1.03-0.16,1.38-0.48c0.35-0.32,0.52-0.77,0.52-1.35v-0.64
			l-0.95,0.04c-0.74,0.03-1.28,0.15-1.62,0.37s-0.51,0.56-0.51,1.02c0,0.33,0.1,0.59,0.3,0.77
			C95.8,122.32,96.09,122.41,96.48,122.41z"/>
		<path class="st2" d="M104.93,122.34c0.38,0,0.77-0.06,1.15-0.18v1.19c-0.17,0.08-0.4,0.14-0.67,0.19
			c-0.28,0.05-0.56,0.08-0.86,0.08c-1.49,0-2.24-0.79-2.24-2.36v-4h-1.01v-0.7l1.09-0.58l0.54-1.57h0.97v1.65h2.11v1.19h-2.11v3.97
			c0,0.38,0.1,0.66,0.29,0.84C104.37,122.25,104.62,122.34,104.93,122.34z"/>
		<path class="st2" d="M107.47,114.09c0-0.28,0.08-0.5,0.23-0.65c0.15-0.15,0.38-0.23,0.66-0.23c0.28,0,0.49,0.08,0.65,0.23
			c0.15,0.15,0.23,0.37,0.23,0.65c0,0.27-0.08,0.48-0.23,0.63s-0.37,0.23-0.65,0.23c-0.29,0-0.51-0.08-0.66-0.23
			S107.47,114.36,107.47,114.09z M109.14,123.48h-1.58v-7.42h1.58V123.48z"/>
		<path class="st2" d="M115.19,115.92c0.93,0,1.65,0.34,2.16,1.01c0.52,0.67,0.78,1.61,0.78,2.83c0,1.22-0.26,2.16-0.79,2.84
			s-1.25,1.02-2.18,1.02c-0.94,0-1.67-0.34-2.19-1.01h-0.11l-0.29,0.88h-1.18v-10.44h1.58v2.48c0,0.18-0.01,0.46-0.03,0.82
			s-0.03,0.59-0.04,0.69h0.07C113.47,116.29,114.21,115.92,115.19,115.92z M114.78,117.21c-0.64,0-1.09,0.19-1.37,0.56
			c-0.28,0.37-0.42,1-0.43,1.88v0.11c0,0.9,0.14,1.56,0.43,1.96c0.29,0.41,0.75,0.61,1.4,0.61c0.56,0,0.98-0.22,1.27-0.66
			c0.29-0.44,0.43-1.08,0.43-1.92C116.51,118.05,115.93,117.21,114.78,117.21z"/>
		<path class="st2" d="M119.87,114.09c0-0.28,0.08-0.5,0.23-0.65c0.15-0.15,0.38-0.23,0.66-0.23c0.28,0,0.49,0.08,0.65,0.23
			c0.15,0.15,0.23,0.37,0.23,0.65c0,0.27-0.08,0.48-0.23,0.63s-0.37,0.23-0.65,0.23c-0.29,0-0.51-0.08-0.66-0.23
			S119.87,114.36,119.87,114.09z M121.54,123.48h-1.58v-7.42h1.58V123.48z"/>
		<path class="st2" d="M125.37,123.48h-1.58v-10.44h1.58V123.48z"/>
		<path class="st2" d="M127.53,114.09c0-0.28,0.08-0.5,0.23-0.65c0.15-0.15,0.38-0.23,0.66-0.23c0.28,0,0.49,0.08,0.65,0.23
			c0.15,0.15,0.23,0.37,0.23,0.65c0,0.27-0.08,0.48-0.23,0.63s-0.37,0.23-0.65,0.23c-0.29,0-0.51-0.08-0.66-0.23
			S127.53,114.36,127.53,114.09z M129.2,123.48h-1.58v-7.42h1.58V123.48z"/>
		<path class="st2" d="M134.22,122.34c0.38,0,0.77-0.06,1.15-0.18v1.19c-0.17,0.08-0.4,0.14-0.67,0.19
			c-0.28,0.05-0.56,0.08-0.86,0.08c-1.49,0-2.24-0.79-2.24-2.36v-4h-1.01v-0.7l1.09-0.58l0.54-1.57h0.97v1.65h2.11v1.19h-2.11v3.97
			c0,0.38,0.1,0.66,0.29,0.84C133.66,122.25,133.91,122.34,134.22,122.34z"/>
		<path class="st2" d="M135.73,116.06h1.72l1.51,4.21c0.23,0.6,0.38,1.16,0.46,1.69h0.05c0.04-0.25,0.11-0.54,0.22-0.9
			c0.11-0.35,0.67-2.02,1.7-5h1.7l-3.17,8.41c-0.58,1.54-1.54,2.32-2.89,2.32c-0.35,0-0.69-0.04-1.02-0.11v-1.25
			c0.24,0.05,0.51,0.08,0.81,0.08c0.76,0,1.29-0.44,1.6-1.32l0.28-0.7L135.73,116.06z"/>
	</g>
</g>
<g>
	<g>
		<polygon class="st1" points="59.3,91.28 50.81,84.35 92.28,34.38 100.77,41.31 		"/>
		<polygon class="st1" points="59.28,91.3 50.79,84.37 46.5,89.54 54.99,96.47 		"/>
		<g>
			<path class="st3" d="M49.82,92.07l-0.91-0.74c-0.24-0.2-0.6-0.16-0.8,0.08l-2.38,2.86c-0.2,0.24-0.16,0.6,0.08,0.79l0.91,0.74
				c0.24,0.2,0.6,0.16,0.8-0.08l2.38-2.86C50.1,92.62,50.06,92.27,49.82,92.07z"/>
			<path class="st3" d="M52.76,94.47l-0.91-0.74c-0.24-0.2-0.6-0.16-0.8,0.08l-2.38,2.86c-0.2,0.24-0.16,0.6,0.08,0.79l0.91,0.74
				c0.24,0.2,0.6,0.16,0.8-0.08l2.38-2.86C53.04,95.02,53,94.67,52.76,94.47z"/>
		</g>
		<polygon class="st1" points="92.27,34.4 100.76,41.33 105.05,36.16 96.56,29.22 		"/>
		<g>
			<path class="st3" d="M101.73,33.63l0.91,0.74c0.24,0.2,0.6,0.16,0.8-0.08l2.38-2.86c0.2-0.24,0.16-0.6-0.08-0.79l-0.91-0.74
				c-0.24-0.2-0.6-0.16-0.8,0.08l-2.38,2.86C101.45,33.08,101.49,33.43,101.73,33.63z"/>
			<path class="st3" d="M98.79,31.23l0.91,0.74c0.24,0.2,0.6,0.16,0.8-0.08l2.38-2.86c0.2-0.24,0.16-0.6-0.08-0.79l-0.91-0.74
				c-0.24-0.2-0.6-0.16-0.8,0.08l-2.38,2.86C98.51,30.68,98.55,31.03,98.79,31.23z"/>
		</g>
	</g>
	<rect x="49.3" y="22.77" class="st1" width="27.22" height="18.86"/>
	<g>
		<line class="st1" x1="44.36" y1="28.32" x2="49.13" y2="28.32"/>
		<line class="st1" x1="44.36" y1="32.2" x2="49.13" y2="32.2"/>
		<line class="st1" x1="44.36" y1="36.08" x2="49.13" y2="36.08"/>
	</g>
	<g>
		<g>
			<line class="st1" x1="77.57" y1="35.96" x2="82.34" y2="35.96"/>
		</g>
		<g>
			<line class="st1" x1="77.57" y1="28.45" x2="82.34" y2="28.45"/>
		</g>
	</g>
	<g>
		<path class="st3" d="M53.28,26.43v3.29h1.86c0.15,0,0.26,0.04,0.34,0.11c0.08,0.07,0.12,0.16,0.12,0.27c0,0.11-0.04,0.2-0.12,0.27
			c-0.08,0.07-0.19,0.1-0.34,0.1h-2.21c-0.2,0-0.34-0.04-0.43-0.13c-0.09-0.09-0.13-0.23-0.13-0.43v-3.48
			c0-0.19,0.04-0.32,0.12-0.42c0.08-0.09,0.19-0.14,0.33-0.14c0.14,0,0.25,0.05,0.33,0.14C53.24,26.1,53.28,26.24,53.28,26.43z"/>
		<path class="st3" d="M53.09,34.01l1.76,2.67v-2.69c0-0.17,0.04-0.31,0.11-0.39c0.08-0.09,0.18-0.13,0.3-0.13
			c0.13,0,0.24,0.04,0.31,0.13c0.08,0.09,0.11,0.22,0.11,0.39v3.56c0,0.4-0.17,0.6-0.49,0.6c-0.08,0-0.16-0.01-0.22-0.04
			c-0.07-0.02-0.13-0.06-0.18-0.11s-0.11-0.11-0.16-0.18c-0.05-0.07-0.1-0.14-0.15-0.21l-1.72-2.64v2.65c0,0.17-0.04,0.3-0.12,0.39
			c-0.08,0.09-0.18,0.13-0.31,0.13c-0.13,0-0.23-0.04-0.31-0.13c-0.08-0.09-0.12-0.22-0.12-0.39v-3.49c0-0.15,0.02-0.26,0.05-0.35
			c0.04-0.09,0.1-0.17,0.19-0.23s0.19-0.09,0.29-0.09c0.08,0,0.15,0.01,0.21,0.04c0.06,0.03,0.11,0.06,0.15,0.11
			c0.04,0.04,0.09,0.1,0.14,0.18S53.04,33.93,53.09,34.01z"/>
	</g>
	<g>
		<path class="st3" d="M72.28,29.82h-0.8v-1.18H70.3v-0.81h1.18v-1.18h0.8v1.18h1.19v0.81h-1.19V29.82z"/>
		<path class="st3" d="M72.37,36.79H71.4c-0.15,0-0.26-0.03-0.34-0.1c-0.08-0.07-0.12-0.16-0.12-0.27c0-0.11,0.04-0.2,0.11-0.27
			c0.08-0.07,0.19-0.1,0.34-0.1h0.97c0.15,0,0.27,0.04,0.34,0.1c0.08,0.07,0.11,0.16,0.11,0.27c0,0.11-0.04,0.2-0.11,0.27
			C72.64,36.75,72.53,36.79,72.37,36.79z"/>
	</g>
</g>
</svg>
