<?xml version="1.0" encoding="utf-8"?>
<!-- Generator: Adobe Illustrator 26.5.2, SVG Export Plug-In . SVG Version: 6.00 Build 0)  -->
<svg version="1.1" id="Layer_1" xmlns="http://www.w3.org/2000/svg" xmlns:xlink="http://www.w3.org/1999/xlink" x="0px" y="0px"
	 viewBox="0 0 150 150" style="enable-background:new 0 0 150 150;" xml:space="preserve">
<style type="text/css">
	.st0{fill:#FFFFFF;}
	.st1{fill:none;stroke:#1D72B6;stroke-width:1.2;stroke-linecap:round;stroke-linejoin:round;stroke-miterlimit:10;}
	.st2{fill:#474848;}
	.st3{fill:#1D72B6;}
	.st4{fill:#FFFFFF;stroke:#1D72B6;stroke-width:1.2;stroke-linecap:round;stroke-linejoin:round;stroke-miterlimit:10;}
</style>
<path class="st0" d="M145.66,149.89h-141c-2.42,0-4.38-1.96-4.38-4.38v-141c0-2.42,1.96-4.38,4.38-4.38h141
	c2.42,0,4.38,1.96,4.38,4.38v141C150.04,147.93,148.08,149.89,145.66,149.89z"/>
<g>
	<path class="st2" d="M43.99,115.09c-0.92,0-1.65,0.33-2.17,0.98c-0.53,0.65-0.79,1.55-0.79,2.7c0,1.2,0.25,2.11,0.76,2.73
		s1.24,0.93,2.21,0.93c0.42,0,0.82-0.04,1.21-0.12c0.39-0.08,0.79-0.19,1.21-0.32v1.38c-0.77,0.29-1.64,0.44-2.62,0.44
		c-1.44,0-2.54-0.43-3.31-1.3c-0.77-0.87-1.15-2.12-1.15-3.73c0-1.02,0.19-1.91,0.56-2.68c0.37-0.77,0.91-1.35,1.62-1.76
		s1.54-0.61,2.49-0.61c1,0,1.93,0.21,2.78,0.63l-0.58,1.33c-0.33-0.16-0.68-0.29-1.05-0.41C44.78,115.15,44.39,115.09,43.99,115.09z
		"/>
	<path class="st2" d="M53,123.67l-0.32-1.03h-0.05c-0.36,0.45-0.72,0.76-1.08,0.92c-0.36,0.16-0.83,0.24-1.4,0.24
		c-0.73,0-1.3-0.2-1.71-0.59s-0.61-0.95-0.61-1.67c0-0.77,0.28-1.34,0.85-1.73c0.57-0.39,1.43-0.6,2.6-0.64l1.28-0.04v-0.4
		c0-0.47-0.11-0.83-0.33-1.06c-0.22-0.24-0.56-0.35-1.03-0.35c-0.38,0-0.75,0.06-1.09,0.17c-0.35,0.11-0.68,0.24-1.01,0.4
		l-0.51-1.13c0.4-0.21,0.84-0.37,1.32-0.48c0.48-0.11,0.93-0.16,1.36-0.16c0.94,0,1.66,0.21,2.14,0.62
		c0.48,0.41,0.72,1.06,0.72,1.94v5H53z M50.65,122.59c0.57,0,1.03-0.16,1.38-0.48c0.35-0.32,0.52-0.77,0.52-1.35v-0.64l-0.95,0.04
		c-0.74,0.03-1.28,0.15-1.62,0.37s-0.51,0.56-0.51,1.02c0,0.33,0.1,0.59,0.3,0.77C49.96,122.5,50.26,122.59,50.65,122.59z"/>
	<path class="st2" d="M61.31,121.55c0,0.72-0.26,1.28-0.79,1.67c-0.53,0.39-1.28,0.58-2.27,0.58c-0.99,0-1.78-0.15-2.38-0.45v-1.36
		c0.87,0.4,1.68,0.6,2.44,0.6c0.97,0,1.46-0.29,1.46-0.88c0-0.19-0.05-0.34-0.16-0.47c-0.11-0.12-0.28-0.25-0.53-0.39
		c-0.25-0.13-0.59-0.29-1.03-0.46c-0.85-0.33-1.43-0.66-1.74-0.99c-0.3-0.33-0.45-0.76-0.45-1.29c0-0.64,0.26-1.13,0.77-1.48
		c0.51-0.35,1.21-0.53,2.09-0.53c0.87,0,1.7,0.18,2.48,0.53l-0.51,1.19c-0.8-0.33-1.47-0.5-2.02-0.5c-0.83,0-1.25,0.24-1.25,0.71
		c0,0.23,0.11,0.43,0.33,0.59s0.69,0.38,1.42,0.66c0.61,0.24,1.06,0.45,1.33,0.65s0.48,0.42,0.62,0.68
		C61.25,120.89,61.31,121.19,61.31,121.55z"/>
	<path class="st2" d="M66.26,123.8c-1.15,0-2.06-0.34-2.71-1.01c-0.65-0.67-0.98-1.6-0.98-2.78c0-1.21,0.3-2.17,0.91-2.86
		c0.6-0.69,1.43-1.04,2.49-1.04c0.98,0,1.75,0.3,2.32,0.89s0.85,1.41,0.85,2.46v0.85H64.2c0.02,0.72,0.22,1.27,0.58,1.66
		c0.37,0.39,0.88,0.58,1.55,0.58c0.44,0,0.85-0.04,1.22-0.12c0.38-0.08,0.78-0.22,1.22-0.41v1.28c-0.38,0.18-0.77,0.31-1.17,0.39
		C67.21,123.76,66.76,123.8,66.26,123.8z M65.97,117.3c-0.5,0-0.9,0.16-1.2,0.48c-0.3,0.32-0.48,0.78-0.54,1.39h3.37
		c-0.01-0.61-0.16-1.08-0.44-1.39C66.86,117.46,66.47,117.3,65.97,117.3z"/>
	<path class="st2" d="M80.33,121c0,0.87-0.32,1.56-0.95,2.05c-0.63,0.5-1.5,0.74-2.61,0.74s-2.02-0.17-2.72-0.52v-1.52
		c0.45,0.21,0.92,0.38,1.43,0.5c0.5,0.12,0.97,0.18,1.41,0.18c0.64,0,1.1-0.12,1.41-0.36c0.3-0.24,0.45-0.57,0.45-0.97
		c0-0.37-0.14-0.68-0.42-0.93c-0.28-0.26-0.85-0.56-1.72-0.91c-0.89-0.36-1.53-0.78-1.89-1.24c-0.37-0.46-0.55-1.02-0.55-1.68
		c0-0.82,0.29-1.46,0.87-1.93c0.58-0.47,1.36-0.7,2.34-0.7c0.94,0,1.87,0.21,2.8,0.62l-0.51,1.31c-0.87-0.37-1.65-0.55-2.33-0.55
		c-0.52,0-0.91,0.11-1.18,0.34c-0.27,0.23-0.4,0.52-0.4,0.9c0,0.25,0.05,0.47,0.16,0.65s0.28,0.35,0.53,0.51
		c0.25,0.16,0.69,0.37,1.33,0.64c0.72,0.3,1.25,0.58,1.58,0.84c0.34,0.26,0.58,0.55,0.74,0.88C80.25,120.17,80.33,120.56,80.33,121z
		"/>
	<path class="st2" d="M84.83,122.52c0.38,0,0.77-0.06,1.15-0.18v1.19c-0.17,0.08-0.4,0.14-0.67,0.19c-0.28,0.05-0.56,0.08-0.86,0.08
		c-1.49,0-2.24-0.79-2.24-2.36v-4H81.2v-0.7l1.09-0.58l0.54-1.57h0.97v1.65h2.11v1.19h-2.11v3.97c0,0.38,0.1,0.66,0.29,0.84
		C84.27,122.43,84.52,122.52,84.83,122.52z"/>
	<path class="st2" d="M92.7,123.67l-0.22-0.97H92.4c-0.22,0.34-0.53,0.62-0.94,0.81c-0.41,0.2-0.87,0.29-1.39,0.29
		c-0.9,0-1.57-0.22-2.01-0.67c-0.44-0.45-0.66-1.12-0.66-2.03v-4.85h1.59v4.58c0,0.57,0.12,0.99,0.35,1.28s0.6,0.43,1.09,0.43
		c0.66,0,1.15-0.2,1.46-0.59c0.31-0.4,0.47-1.06,0.47-1.99v-3.7h1.58v7.42H92.7z"/>
	<path class="st2" d="M98.69,123.8c-0.93,0-1.65-0.33-2.17-1.01c-0.52-0.67-0.78-1.61-0.78-2.83c0-1.22,0.26-2.17,0.79-2.84
		c0.53-0.68,1.25-1.02,2.18-1.02c0.98,0,1.72,0.36,2.23,1.08h0.08c-0.08-0.53-0.11-0.95-0.11-1.26v-2.71h1.58v10.44h-1.23
		l-0.28-0.97h-0.07C100.41,123.43,99.67,123.8,98.69,123.8z M99.12,122.52c0.65,0,1.12-0.18,1.42-0.55
		c0.29-0.37,0.45-0.96,0.46-1.78v-0.22c0-0.93-0.15-1.6-0.46-1.99c-0.3-0.39-0.78-0.59-1.43-0.59c-0.55,0-0.98,0.22-1.28,0.67
		c-0.3,0.45-0.45,1.09-0.45,1.92c0,0.82,0.15,1.45,0.44,1.88C98.1,122.31,98.53,122.52,99.12,122.52z"/>
	<path class="st2" d="M103.63,116.24h1.72l1.51,4.21c0.23,0.6,0.38,1.16,0.46,1.69h0.05c0.04-0.25,0.11-0.54,0.22-0.9
		c0.11-0.35,0.67-2.02,1.7-5h1.7l-3.17,8.41c-0.58,1.54-1.54,2.32-2.89,2.32c-0.35,0-0.69-0.04-1.02-0.11v-1.25
		c0.24,0.05,0.51,0.08,0.81,0.08c0.76,0,1.29-0.44,1.6-1.32l0.28-0.7L103.63,116.24z"/>
</g>
<g>
	<path class="st1" d="M103.24,98.34H47.08c-1.15,0-2.08-0.93-2.08-2.08V24.44c0-1.15,0.93-2.08,2.08-2.08h44.3l13.94,11.95v61.94
		C105.32,97.41,104.39,98.34,103.24,98.34z"/>
	<path class="st1" d="M105.25,34.5H93.4c-1.18,0-2.13-0.95-2.13-2.13v-9.82"/>
	<line class="st1" x1="51.05" y1="29.8" x2="79.75" y2="29.8"/>
	<line class="st1" x1="69.61" y1="39.28" x2="84.68" y2="39.28"/>
	<line class="st1" x1="51.05" y1="39.28" x2="53.46" y2="39.28"/>
	<polyline class="st1" points="74.38,48.76 80.57,48.76 99.58,48.76 	"/>
	<line class="st1" x1="72.24" y1="58.24" x2="99.58" y2="58.24"/>
	<line class="st1" x1="51.05" y1="58.24" x2="52.11" y2="58.24"/>
	<line class="st1" x1="84.19" y1="67.72" x2="99.58" y2="67.72"/>
	<line class="st1" x1="63.85" y1="67.72" x2="77.37" y2="67.72"/>
	<line class="st1" x1="92.94" y1="77.19" x2="99.58" y2="77.19"/>
	<line class="st1" x1="63.85" y1="77.19" x2="86.9" y2="77.19"/>
	<line class="st1" x1="63.85" y1="86.67" x2="99.58" y2="86.67"/>
	<polyline class="st1" points="51.15,68.21 53.61,71.09 58.62,66.19 	"/>
	<polyline class="st1" points="51.15,77.71 53.61,80.59 58.62,75.68 	"/>
	<polyline class="st1" points="51.15,87.21 53.61,90.09 58.62,85.18 	"/>
	<circle class="st1" cx="61.61" cy="49.43" r="12.8"/>
	<polyline class="st1" points="57.22,48.66 60.88,52.95 68.34,45.65 	"/>
	<path class="st1" d="M92.75,77.36l-2.47,2.47c-0.19,0.19-0.51,0.19-0.7,0l-2.79-2.79L74.06,64.31c-0.19-0.19-0.19-0.51,0-0.7
		l2.47-2.47c0.19-0.19,0.51-0.19,0.7,0l15.52,15.52C92.94,76.85,92.94,77.17,92.75,77.36z"/>
	<line class="st1" x1="75.51" y1="61.46" x2="71.74" y2="57.69"/>
	<line class="st1" x1="70.17" y1="59.27" x2="73.93" y2="63.04"/>
</g>
</svg>
