<?xml version="1.0" encoding="utf-8"?>
<!-- Generator: Adobe Illustrator 26.5.2, SVG Export Plug-In . SVG Version: 6.00 Build 0)  -->
<svg version="1.1" id="Layer_1" xmlns="http://www.w3.org/2000/svg" xmlns:xlink="http://www.w3.org/1999/xlink" x="0px" y="0px"
	 viewBox="0 0 150 150" style="enable-background:new 0 0 150 150;" xml:space="preserve">
<style type="text/css">
	.st0{fill:#FFFFFF;}
	.st1{fill:none;stroke:#1D72B6;stroke-linecap:round;stroke-linejoin:round;stroke-miterlimit:10;}
	.st2{fill:#474848;}
	.st3{fill:#1D72B6;}
	.st4{fill:#FFFFFF;stroke:#1D72B6;stroke-linecap:round;stroke-linejoin:round;stroke-miterlimit:10;}
</style>
<path class="st0" d="M145.53,149.82h-141c-2.42,0-4.38-1.96-4.38-4.38v-141c0-2.42,1.96-4.38,4.38-4.38h141
	c2.42,0,4.38,1.96,4.38,4.38v141C149.91,147.86,147.95,149.82,145.53,149.82z"/>
<g>
	<path class="st1" d="M103.23,98.44h-56.4c-1.15,0-2.09-0.93-2.09-2.09V24.24c0-1.15,0.93-2.09,2.09-2.09h44.48l14,12v62.2
		C105.32,97.51,104.39,98.44,103.23,98.44z"/>
	<path class="st1" d="M105.25,34.34h-11.9c-1.18,0-2.14-0.96-2.14-2.14v-9.86"/>
	<line class="st1" x1="50.82" y1="29.62" x2="79.64" y2="29.62"/>
	<line class="st1" x1="50.78" y1="60.05" x2="99.71" y2="60.05"/>
	<line class="st1" x1="50.78" y1="67.05" x2="99.71" y2="67.05"/>
	<line class="st1" x1="50.78" y1="74.05" x2="99.71" y2="74.05"/>
	<line class="st1" x1="75.41" y1="39.62" x2="99.75" y2="39.62"/>
	<line class="st1" x1="75.41" y1="44.84" x2="99.75" y2="44.84"/>
	<line class="st1" x1="75.41" y1="50.05" x2="99.75" y2="50.05"/>
	<rect x="50.82" y="35.15" class="st1" width="18.57" height="18.57"/>
	<rect x="50.86" y="80.97" class="st1" width="48.78" height="9.05"/>
</g>
<g>
	<path class="st2" d="M48.05,118.59c0,1.62-0.45,2.86-1.35,3.71c-0.9,0.86-2.19,1.29-3.89,1.29h-2.74v-9.81h3.03
		c1.56,0,2.78,0.42,3.64,1.26C47.61,115.88,48.05,117.07,48.05,118.59z M46.36,118.65c0-2.35-1.1-3.52-3.3-3.52h-1.39v7.12h1.14
		C45.17,122.24,46.36,121.04,46.36,118.65z"/>
	<path class="st2" d="M54.63,123.59l-0.32-1.03h-0.05c-0.36,0.45-0.72,0.76-1.08,0.92c-0.36,0.16-0.83,0.24-1.4,0.24
		c-0.73,0-1.3-0.2-1.71-0.59c-0.41-0.39-0.61-0.95-0.61-1.67c0-0.77,0.28-1.34,0.85-1.73c0.57-0.39,1.43-0.6,2.6-0.64l1.28-0.04
		v-0.4c0-0.47-0.11-0.83-0.33-1.06c-0.22-0.24-0.56-0.35-1.03-0.35c-0.38,0-0.74,0.06-1.09,0.17c-0.35,0.11-0.68,0.24-1.01,0.4
		l-0.51-1.13c0.4-0.21,0.84-0.37,1.32-0.48c0.48-0.11,0.93-0.16,1.36-0.16c0.94,0,1.66,0.21,2.14,0.62
		c0.48,0.41,0.72,1.06,0.72,1.94v5H54.63z M52.28,122.52c0.57,0,1.03-0.16,1.38-0.48c0.35-0.32,0.52-0.77,0.52-1.35v-0.64
		l-0.95,0.04c-0.74,0.03-1.28,0.15-1.62,0.37s-0.51,0.56-0.51,1.02c0,0.33,0.1,0.59,0.29,0.77
		C51.59,122.43,51.89,122.52,52.28,122.52z"/>
	<path class="st2" d="M60.72,122.45c0.38,0,0.77-0.06,1.15-0.18v1.19c-0.17,0.08-0.4,0.14-0.67,0.19c-0.27,0.05-0.56,0.08-0.86,0.08
		c-1.49,0-2.24-0.79-2.24-2.36v-4h-1.01v-0.7l1.09-0.58l0.54-1.57h0.97v1.65h2.11v1.19h-2.11v3.97c0,0.38,0.1,0.66,0.29,0.84
		C60.17,122.36,60.42,122.45,60.72,122.45z"/>
	<path class="st2" d="M68.01,123.59l-0.32-1.03h-0.05c-0.36,0.45-0.72,0.76-1.08,0.92c-0.36,0.16-0.83,0.24-1.4,0.24
		c-0.73,0-1.3-0.2-1.71-0.59c-0.41-0.39-0.61-0.95-0.61-1.67c0-0.77,0.28-1.34,0.85-1.73c0.57-0.39,1.43-0.6,2.6-0.64l1.28-0.04
		v-0.4c0-0.47-0.11-0.83-0.33-1.06c-0.22-0.24-0.56-0.35-1.03-0.35c-0.38,0-0.74,0.06-1.09,0.17c-0.35,0.11-0.68,0.24-1.01,0.4
		l-0.51-1.13c0.4-0.21,0.84-0.37,1.32-0.48c0.48-0.11,0.93-0.16,1.36-0.16c0.94,0,1.66,0.21,2.14,0.62
		c0.48,0.41,0.72,1.06,0.72,1.94v5H68.01z M65.66,122.52c0.57,0,1.03-0.16,1.38-0.48c0.35-0.32,0.52-0.77,0.52-1.35v-0.64
		l-0.95,0.04c-0.74,0.03-1.28,0.15-1.62,0.37s-0.51,0.56-0.51,1.02c0,0.33,0.1,0.59,0.29,0.77
		C64.97,122.43,65.26,122.52,65.66,122.52z"/>
	<path class="st2" d="M80.73,120.93c0,0.87-0.32,1.56-0.95,2.05c-0.63,0.5-1.5,0.74-2.61,0.74c-1.11,0-2.02-0.17-2.73-0.52v-1.52
		c0.45,0.21,0.92,0.38,1.43,0.5c0.5,0.12,0.97,0.18,1.41,0.18c0.64,0,1.1-0.12,1.41-0.36c0.3-0.24,0.45-0.57,0.45-0.97
		c0-0.37-0.14-0.68-0.42-0.93c-0.28-0.26-0.85-0.56-1.72-0.91c-0.9-0.36-1.53-0.78-1.89-1.24c-0.37-0.46-0.55-1.02-0.55-1.68
		c0-0.82,0.29-1.46,0.87-1.93s1.36-0.7,2.34-0.7c0.94,0,1.88,0.21,2.81,0.62l-0.51,1.31c-0.87-0.37-1.65-0.55-2.34-0.55
		c-0.52,0-0.91,0.11-1.18,0.34c-0.27,0.23-0.4,0.52-0.4,0.9c0,0.25,0.05,0.47,0.16,0.65s0.28,0.35,0.53,0.51s0.69,0.37,1.33,0.64
		c0.72,0.3,1.25,0.58,1.58,0.84c0.34,0.26,0.58,0.55,0.74,0.88C80.65,120.1,80.73,120.48,80.73,120.93z"/>
	<path class="st2" d="M88.99,123.59h-1.58v-4.56c0-0.57-0.12-1-0.35-1.28c-0.23-0.28-0.6-0.42-1.1-0.42c-0.66,0-1.15,0.2-1.46,0.59
		c-0.31,0.4-0.47,1.06-0.47,1.99v3.68h-1.58v-10.44h1.58v2.65c0,0.42-0.03,0.88-0.08,1.36h0.1c0.21-0.36,0.51-0.64,0.9-0.83
		c0.38-0.2,0.83-0.29,1.34-0.29c1.8,0,2.7,0.91,2.7,2.72V123.59z"/>
	<path class="st2" d="M94.43,123.73c-1.15,0-2.06-0.34-2.71-1.01c-0.65-0.67-0.98-1.6-0.98-2.78c0-1.21,0.3-2.17,0.91-2.86
		s1.43-1.04,2.49-1.04c0.98,0,1.75,0.3,2.32,0.89c0.57,0.59,0.85,1.41,0.85,2.46v0.85h-4.95c0.02,0.72,0.22,1.27,0.58,1.66
		c0.37,0.39,0.88,0.58,1.55,0.58c0.44,0,0.85-0.04,1.22-0.12c0.38-0.08,0.78-0.22,1.22-0.41v1.28c-0.38,0.18-0.77,0.31-1.17,0.39
		C95.38,123.69,94.93,123.73,94.43,123.73z M94.14,117.23c-0.5,0-0.9,0.16-1.2,0.48c-0.3,0.32-0.48,0.78-0.54,1.39h3.37
		c-0.01-0.61-0.16-1.08-0.44-1.39C95.03,117.39,94.64,117.23,94.14,117.23z"/>
	<path class="st2" d="M102.35,123.73c-1.15,0-2.06-0.34-2.71-1.01c-0.65-0.67-0.98-1.6-0.98-2.78c0-1.21,0.3-2.17,0.91-2.86
		s1.43-1.04,2.49-1.04c0.98,0,1.75,0.3,2.32,0.89c0.57,0.59,0.85,1.41,0.85,2.46v0.85h-4.95c0.02,0.72,0.22,1.27,0.58,1.66
		c0.37,0.39,0.88,0.58,1.55,0.58c0.44,0,0.85-0.04,1.22-0.12c0.38-0.08,0.78-0.22,1.22-0.41v1.28c-0.38,0.18-0.77,0.31-1.17,0.39
		C103.3,123.69,102.85,123.73,102.35,123.73z M102.06,117.23c-0.5,0-0.9,0.16-1.2,0.48c-0.3,0.32-0.48,0.78-0.54,1.39h3.37
		c-0.01-0.61-0.16-1.08-0.44-1.39C102.95,117.39,102.56,117.23,102.06,117.23z"/>
	<path class="st2" d="M109.79,122.45c0.38,0,0.77-0.06,1.15-0.18v1.19c-0.17,0.08-0.4,0.14-0.67,0.19
		c-0.27,0.05-0.56,0.08-0.86,0.08c-1.49,0-2.24-0.79-2.24-2.36v-4h-1.01v-0.7l1.09-0.58l0.54-1.57h0.97v1.65h2.11v1.19h-2.11v3.97
		c0,0.38,0.1,0.66,0.29,0.84C109.23,122.36,109.48,122.45,109.79,122.45z"/>
</g>
</svg>
