<svg xmlns="http://www.w3.org/2000/svg" viewBox="0 0 68 47.88">
  <title>icon-play</title>
  <g id="Layer_2" data-name="Layer 2">
    <g id="Layer_1-2" data-name="Layer 1">
      <g>
        <path d="M31.39,0h5.87c2.42.06,4.85.08,7.27.15,3.31.1,6.62.22,9.92.46,1.23.1,2.46.2,3.68.35a23.58,23.58,0,0,1,2.79.49,8.6,8.6,0,0,1,6.13,6.29,41.62,41.62,0,0,1,1,6.38V33.53a45.65,45.65,0,0,1-.93,6.59,8.57,8.57,0,0,1-6.35,6.41,24.18,24.18,0,0,1-2.79.45c-2.59.29-5.19.44-7.78.56q-5.68.24-11.35.31c-.45,0-.9,0-1.35,0H33.19c-5.37,0-10.73-.14-16.09-.41-2.57-.15-5.15-.31-7.7-.67a13.21,13.21,0,0,1-2.7-.62A8.59,8.59,0,0,1,2,42a9.78,9.78,0,0,1-.81-2.43,49.6,49.6,0,0,1-.81-6.08c-.24-3-.35-6-.39-9V23.42c0-2.7.13-5.4.32-8.09a55.89,55.89,0,0,1,.83-6.71,12.34,12.34,0,0,1,.54-2A8.79,8.79,0,0,1,7.05,1.52a10.76,10.76,0,0,1,1.59-.36C10,.93,11.35.8,12.71.68,15,.5,17.27.38,19.55.29,22.48.17,25.4.1,28.33.06c1,0,2,0,3.06-.06" style="fill: red;fill-rule: evenodd"/>
        <path d="M27.38,13.69q8.91,5.12,17.8,10.25-8.9,5.13-17.8,10.25Z" style="fill: #fff;fill-rule: evenodd"/>
      </g>
    </g>
  </g>
</svg>
