<?xml version="1.0" encoding="utf-8"?>
<!-- Generator: Adobe Illustrator 26.5.2, SVG Export Plug-In . SVG Version: 6.00 Build 0)  -->
<svg version="1.1" id="Layer_1" xmlns="http://www.w3.org/2000/svg" xmlns:xlink="http://www.w3.org/1999/xlink" x="0px" y="0px"
	 viewBox="0 0 150 150" style="enable-background:new 0 0 150 150;" xml:space="preserve">
<style type="text/css">
	.st0{fill:#FFFFFF;}
	.st1{fill:none;stroke:#1D72B6;stroke-width:1.2;stroke-linecap:round;stroke-linejoin:round;stroke-miterlimit:10;}
	.st2{fill:#474848;}
	.st3{fill:#1D72B6;}
	.st4{fill:#FFFFFF;stroke:#1D72B6;stroke-width:1.2;stroke-linecap:round;stroke-linejoin:round;stroke-miterlimit:10;}
</style>
<path class="st0" d="M145.38,149.82h-141c-2.42,0-4.38-1.96-4.38-4.38v-141c0-2.42,1.96-4.38,4.38-4.38h141
	c2.42,0,4.38,1.96,4.38,4.38v141C149.76,147.86,147.8,149.82,145.38,149.82z"/>
<g>
	<g>
		<path class="st2" d="M34.24,123.34v-9.81h1.6v9.81H34.24z"/>
		<path class="st2" d="M44.8,123.34h-1.58v-4.56c0-0.57-0.12-1-0.34-1.28c-0.23-0.28-0.6-0.42-1.1-0.42c-0.67,0-1.15,0.2-1.46,0.59
			s-0.46,1.05-0.46,1.98v3.7h-1.58v-7.42h1.23l0.22,0.97h0.08c0.22-0.35,0.54-0.63,0.95-0.82c0.41-0.19,0.87-0.29,1.37-0.29
			c1.78,0,2.67,0.91,2.67,2.72V123.34z"/>
		<path class="st2" d="M51.98,121.22c0,0.72-0.26,1.28-0.79,1.67c-0.53,0.39-1.28,0.58-2.27,0.58c-0.99,0-1.78-0.15-2.38-0.45v-1.36
			c0.87,0.4,1.68,0.6,2.44,0.6c0.97,0,1.46-0.29,1.46-0.88c0-0.19-0.05-0.34-0.16-0.47c-0.11-0.12-0.28-0.25-0.53-0.39
			c-0.25-0.13-0.59-0.29-1.03-0.46c-0.85-0.33-1.43-0.66-1.73-0.99s-0.45-0.76-0.45-1.29c0-0.64,0.26-1.13,0.77-1.48
			c0.51-0.35,1.21-0.53,2.09-0.53c0.87,0,1.7,0.18,2.48,0.53l-0.51,1.19c-0.8-0.33-1.47-0.5-2.02-0.5c-0.83,0-1.25,0.24-1.25,0.71
			c0,0.23,0.11,0.43,0.33,0.59s0.69,0.38,1.42,0.66c0.61,0.24,1.06,0.45,1.34,0.65s0.48,0.42,0.62,0.68
			C51.91,120.56,51.98,120.86,51.98,121.22z"/>
		<path class="st2" d="M56.45,122.2c0.38,0,0.77-0.06,1.15-0.18v1.19c-0.17,0.08-0.4,0.14-0.67,0.19c-0.27,0.05-0.56,0.08-0.86,0.08
			c-1.49,0-2.24-0.79-2.24-2.36v-4h-1.01v-0.7l1.09-0.58l0.54-1.57h0.97v1.65h2.11v1.19h-2.11v3.97c0,0.38,0.09,0.66,0.29,0.84
			C55.89,122.1,56.14,122.2,56.45,122.2z"/>
		<path class="st2" d="M63.73,123.34l-0.32-1.03h-0.05c-0.36,0.45-0.72,0.76-1.08,0.92c-0.36,0.16-0.83,0.24-1.4,0.24
			c-0.73,0-1.3-0.2-1.71-0.59c-0.41-0.39-0.61-0.95-0.61-1.67c0-0.77,0.28-1.34,0.85-1.73c0.57-0.39,1.43-0.6,2.6-0.64l1.28-0.04
			v-0.4c0-0.47-0.11-0.83-0.33-1.06c-0.22-0.24-0.56-0.35-1.03-0.35c-0.38,0-0.74,0.06-1.09,0.17c-0.35,0.11-0.68,0.24-1.01,0.4
			l-0.51-1.13c0.4-0.21,0.84-0.37,1.32-0.48c0.48-0.11,0.93-0.16,1.36-0.16c0.94,0,1.66,0.21,2.14,0.62
			c0.48,0.41,0.72,1.06,0.72,1.94v5H63.73z M61.38,122.26c0.57,0,1.03-0.16,1.38-0.48c0.35-0.32,0.52-0.77,0.52-1.35v-0.64
			l-0.95,0.04c-0.74,0.03-1.28,0.15-1.62,0.37s-0.51,0.56-0.51,1.02c0,0.33,0.1,0.59,0.29,0.77
			C60.69,122.17,60.99,122.26,61.38,122.26z"/>
		<path class="st2" d="M68.64,123.34h-1.58v-10.44h1.58V123.34z"/>
		<path class="st2" d="M72.47,123.34h-1.58v-10.44h1.58V123.34z"/>
		<path class="st2" d="M82.47,118.01h3.61v4.93c-0.59,0.19-1.16,0.33-1.7,0.41c-0.54,0.08-1.13,0.12-1.76,0.12
			c-1.49,0-2.63-0.44-3.44-1.32c-0.81-0.88-1.21-2.12-1.21-3.72c0-1.58,0.45-2.82,1.36-3.71s2.16-1.34,3.75-1.34
			c1.02,0,2,0.2,2.91,0.59l-0.56,1.33c-0.8-0.37-1.59-0.55-2.39-0.55c-1.05,0-1.88,0.33-2.48,0.99c-0.61,0.66-0.91,1.56-0.91,2.7
			c0,1.2,0.27,2.11,0.82,2.74c0.55,0.62,1.34,0.94,2.37,0.94c0.52,0,1.07-0.06,1.66-0.19v-2.53h-2.03V118.01z"/>
		<path class="st2" d="M93.51,123.34l-0.22-0.97H93.2c-0.22,0.34-0.53,0.62-0.94,0.81c-0.41,0.2-0.87,0.29-1.39,0.29
			c-0.9,0-1.57-0.22-2.01-0.67c-0.44-0.45-0.66-1.12-0.66-2.03v-4.85h1.59v4.58c0,0.57,0.12,0.99,0.35,1.28
			c0.23,0.28,0.6,0.43,1.09,0.43c0.66,0,1.15-0.2,1.46-0.59c0.31-0.4,0.47-1.06,0.47-1.99v-3.7h1.58v7.42H93.51z"/>
		<path class="st2" d="M96.9,113.95c0-0.28,0.08-0.5,0.23-0.65c0.15-0.15,0.37-0.23,0.66-0.23c0.28,0,0.49,0.08,0.65,0.23
			c0.15,0.15,0.23,0.37,0.23,0.65c0,0.27-0.08,0.48-0.23,0.63s-0.37,0.23-0.65,0.23c-0.29,0-0.51-0.08-0.66-0.23
			S96.9,114.22,96.9,113.95z M98.57,123.34H97v-7.42h1.58V123.34z"/>
		<path class="st2" d="M103.33,123.47c-0.93,0-1.65-0.33-2.17-1.01c-0.52-0.67-0.78-1.61-0.78-2.83c0-1.22,0.26-2.17,0.79-2.84
			c0.53-0.68,1.25-1.02,2.18-1.02c0.97,0,1.72,0.36,2.23,1.08h0.08c-0.08-0.53-0.11-0.95-0.11-1.26v-2.71h1.58v10.44h-1.23
			l-0.28-0.97h-0.07C105.05,123.1,104.31,123.47,103.33,123.47z M103.75,122.2c0.65,0,1.12-0.18,1.42-0.55
			c0.29-0.37,0.45-0.96,0.46-1.78v-0.22c0-0.93-0.15-1.6-0.46-1.99c-0.3-0.39-0.78-0.59-1.43-0.59c-0.55,0-0.98,0.22-1.28,0.67
			c-0.3,0.45-0.45,1.09-0.45,1.92c0,0.82,0.15,1.45,0.44,1.88S103.17,122.2,103.75,122.2z"/>
		<path class="st2" d="M112.63,123.47c-1.15,0-2.06-0.34-2.71-1.01c-0.65-0.67-0.98-1.6-0.98-2.78c0-1.21,0.3-2.17,0.91-2.86
			c0.6-0.69,1.43-1.04,2.49-1.04c0.98,0,1.75,0.3,2.32,0.89s0.85,1.41,0.85,2.46v0.85h-4.95c0.02,0.72,0.22,1.27,0.58,1.66
			s0.88,0.58,1.55,0.58c0.44,0,0.85-0.04,1.22-0.12c0.38-0.08,0.78-0.22,1.22-0.41v1.28c-0.38,0.18-0.77,0.31-1.17,0.39
			C113.59,123.43,113.14,123.47,112.63,123.47z M112.34,116.97c-0.5,0-0.9,0.16-1.2,0.48c-0.3,0.32-0.48,0.78-0.54,1.39h3.37
			c-0.01-0.61-0.16-1.08-0.44-1.39S112.85,116.97,112.34,116.97z"/>
	</g>
</g>
<g>
	<g>
		<path class="st1" d="M82.49,91.02H45.91c-1.04,0-1.88-0.84-1.88-1.88V24.29c0-1.04,0.84-1.88,1.88-1.88h40.01L98.51,33.2v41.06"/>
		<path class="st1" d="M98.45,33.37h-10.7c-1.06,0-1.92-0.86-1.92-1.92v-8.87"/>
		<line class="st1" x1="49.5" y1="29.13" x2="75.42" y2="29.13"/>
		<g>
			<g>
				<line class="st1" x1="71.61" y1="37.61" x2="93.5" y2="37.61"/>
				<line class="st1" x1="71.61" y1="42.3" x2="93.5" y2="42.3"/>
				<line class="st1" x1="71.61" y1="46.99" x2="93.5" y2="46.99"/>
			</g>
			<rect x="49.5" y="36.54" class="st1" width="17.04" height="11.53"/>
		</g>
		<g>
			<g>
				<line class="st1" x1="71.61" y1="56.17" x2="93.5" y2="56.17"/>
				<line class="st1" x1="71.61" y1="60.86" x2="93.5" y2="60.86"/>
				<line class="st1" x1="71.61" y1="65.55" x2="84.92" y2="65.55"/>
			</g>
			<rect x="49.5" y="55.1" class="st1" width="17.04" height="11.53"/>
		</g>
		<g>
			<g>
				<line class="st1" x1="71.61" y1="74.77" x2="88.7" y2="74.77"/>
				<line class="st1" x1="71.61" y1="79.46" x2="82.92" y2="79.46"/>
			</g>
			<rect x="49.5" y="73.69" class="st1" width="17.04" height="11.53"/>
		</g>
	</g>
	<path class="st3" d="M89.38,71.33l0.15,2.46c-1.64,0.38-3.21,1.12-4.57,2.23l-1.84-1.63l-2.46,2.78l1.84,1.63
		c-0.93,1.49-1.48,3.13-1.66,4.8l-2.46,0.15l0.22,3.71l2.46-0.15c0.38,1.64,1.12,3.2,2.23,4.57l-1.63,1.84l2.78,2.46l1.63-1.84
		c1.49,0.93,3.13,1.48,4.8,1.66l0.15,2.46l3.71-0.22l-0.15-2.46c1.64-0.38,3.21-1.12,4.57-2.23l1.84,1.63l2.46-2.78l-1.84-1.63
		c0.93-1.49,1.48-3.13,1.66-4.8l2.46-0.15l-0.22-3.71l-2.46,0.15c-0.38-1.64-1.12-3.21-2.23-4.57l1.63-1.84l-2.78-2.46l-1.63,1.84
		c-1.49-0.93-3.13-1.48-4.8-1.66l-0.15-2.46L89.38,71.33z M96.14,80.17c2.55,2.26,2.78,6.15,0.53,8.7c-2.26,2.55-6.15,2.78-8.7,0.53
		c-2.55-2.26-2.78-6.15-0.53-8.7C89.69,78.15,93.59,77.91,96.14,80.17z"/>
</g>
</svg>
