<?xml version="1.0" encoding="utf-8"?>
<!-- Generator: Adobe Illustrator 26.5.2, SVG Export Plug-In . SVG Version: 6.00 Build 0)  -->
<svg version="1.1" id="Layer_1" xmlns="http://www.w3.org/2000/svg" xmlns:xlink="http://www.w3.org/1999/xlink" x="0px" y="0px"
	 viewBox="0 0 400 400" style="enable-background:new 0 0 400 400;" xml:space="preserve">
<style type="text/css">
	.st0{fill:#23B26B;}
</style>
<path class="st0" d="M344.88,222.34c-32.81-67.29-77.85-111.22-126.23-135.13c27.8-27.25,36.15-50.6,40.04-65.62
	c3.89-15.01,3.89-20.58-8.34-20.02c-12.79,0.58-32.81,6.12-48.94,11.12c-16.13,5-26.69,6.12-50.05-6.12s-34.48-3.89-34.48,10.57
	s9.45,43.38,45.04,72.29C44.58,155.61,1.03,311.07,57.38,358.03c33.37,27.8,80.63,50.6,201.31,36.7
	C375.03,381.33,377.69,289.63,344.88,222.34z M184.55,227.13c2.77,2.9,7.91,5.85,15.43,8.87c7.52,3.02,13.7,5.87,18.55,8.54
	c4.85,2.68,8.93,5.7,12.27,9.06c3.33,3.37,5.88,7.21,7.65,11.52c1.76,4.31,2.64,9.33,2.64,15.05c0,10.7-3.34,19.38-10.01,26.05
	c-6.67,6.67-15.86,10.6-27.56,11.8v18.78h-15.01v-18.69c-12.9-1.39-22.89-5.96-29.97-13.73c-7.08-7.77-10.62-18.11-10.62-31.01
	h27.28c0,7.49,1.78,13.23,5.33,17.23c3.55,4,8.67,5.99,15.34,5.99c5.54,0,9.91-1.46,13.12-4.39c3.21-2.93,4.81-6.87,4.81-11.85
	c0-5.16-1.43-9.27-4.29-12.32c-2.86-3.05-7.73-5.87-14.58-8.45c-6.86-2.58-12.78-5.14-17.75-7.69c-4.97-2.55-9.24-5.47-12.79-8.78
	c-3.56-3.3-6.32-7.19-8.31-11.66c-1.98-4.47-2.97-9.78-2.97-15.95c0-10.63,3.4-19.35,10.19-26.15c6.8-6.8,15.83-10.76,27.09-11.89
	v-20.2h15.1v20.48c11.14,1.57,19.85,6.21,26.15,13.92c6.29,7.71,9.44,17.7,9.44,29.97h-27.28c0-7.55-1.56-13.2-4.67-16.94
	c-3.12-3.74-7.28-5.62-12.51-5.62c-5.16,0-9.16,1.46-11.99,4.39c-2.83,2.93-4.25,6.97-4.25,12.13
	C180.39,220.4,181.78,224.23,184.55,227.13z"/>
</svg>
