<?xml version="1.0" encoding="utf-8"?>
<!-- Generator: Adobe Illustrator 26.5.2, SVG Export Plug-In . SVG Version: 6.00 Build 0)  -->
<svg version="1.1" id="Layer_1" xmlns="http://www.w3.org/2000/svg" xmlns:xlink="http://www.w3.org/1999/xlink" x="0px" y="0px"
	 viewBox="0 0 150 150" style="enable-background:new 0 0 150 150;" xml:space="preserve">
<style type="text/css">
	.st0{fill:#FFFFFF;}
	.st1{fill:none;stroke:#1D72B6;stroke-width:1.2;stroke-linecap:round;stroke-linejoin:round;stroke-miterlimit:10;}
	.st2{fill:#474848;}
	.st3{fill:#1D72B6;}
	.st4{fill:#FFFFFF;stroke:#1D72B6;stroke-width:1.2;stroke-linecap:round;stroke-linejoin:round;stroke-miterlimit:10;}
</style>
<path class="st0" d="M145.66,149.82h-141c-2.42,0-4.38-1.96-4.38-4.38v-141c0-2.42,1.96-4.38,4.38-4.38h141
	c2.42,0,4.38,1.96,4.38,4.38v141C150.04,147.86,148.08,149.82,145.66,149.82z"/>
<g>
	<path class="st2" d="M45.37,118.89c0,1.19-0.23,2.19-0.68,3.01c-0.45,0.81-1.11,1.39-1.98,1.72l2.35,2.53H42.9l-1.85-2.2h-0.26
		c-1.48,0-2.62-0.44-3.41-1.32c-0.79-0.88-1.19-2.13-1.19-3.75c0-1.62,0.4-2.86,1.2-3.73c0.8-0.87,1.94-1.3,3.42-1.3
		c1.46,0,2.59,0.44,3.38,1.32C44.98,116.05,45.37,117.29,45.37,118.89z M37.88,118.89c0,1.21,0.24,2.12,0.73,2.75
		s1.21,0.94,2.17,0.94c0.95,0,1.67-0.31,2.16-0.93s0.73-1.54,0.73-2.76c0-1.2-0.24-2.12-0.72-2.74s-1.2-0.93-2.15-0.93
		c-0.96,0-1.69,0.31-2.18,0.93S37.88,117.69,37.88,118.89z"/>
	<path class="st2" d="M52.55,123.81l-0.22-0.97h-0.08c-0.22,0.34-0.53,0.62-0.94,0.81c-0.41,0.2-0.87,0.29-1.39,0.29
		c-0.9,0-1.57-0.22-2.01-0.67s-0.66-1.12-0.66-2.03v-4.85h1.59v4.58c0,0.57,0.12,0.99,0.35,1.28c0.23,0.28,0.6,0.43,1.09,0.43
		c0.66,0,1.15-0.2,1.46-0.59c0.31-0.4,0.47-1.06,0.47-1.99v-3.7h1.58v7.42H52.55z"/>
	<path class="st2" d="M55.94,114.42c0-0.28,0.08-0.5,0.23-0.65c0.15-0.15,0.37-0.23,0.66-0.23c0.28,0,0.49,0.08,0.65,0.23
		c0.15,0.15,0.23,0.37,0.23,0.65c0,0.27-0.08,0.48-0.23,0.63s-0.37,0.23-0.65,0.23c-0.29,0-0.51-0.08-0.66-0.23
		S55.94,114.69,55.94,114.42z M57.62,123.81h-1.58v-7.42h1.58V123.81z"/>
	<path class="st2" d="M62.86,123.94c-1.12,0-1.98-0.33-2.56-0.98c-0.58-0.66-0.88-1.6-0.88-2.82c0-1.25,0.31-2.21,0.92-2.88
		s1.49-1.01,2.65-1.01c0.78,0,1.49,0.15,2.11,0.44l-0.48,1.27c-0.67-0.26-1.22-0.39-1.65-0.39c-1.28,0-1.93,0.85-1.93,2.56
		c0,0.83,0.16,1.46,0.48,1.88c0.32,0.42,0.79,0.63,1.41,0.63c0.7,0,1.37-0.17,1.99-0.52v1.38c-0.28,0.17-0.58,0.28-0.9,0.36
		C63.71,123.91,63.32,123.94,62.86,123.94z"/>
	<path class="st2" d="M68.2,119.89l0.89-1.11l2.24-2.39h1.82l-2.99,3.19l3.17,4.23h-1.85l-2.38-3.25l-0.87,0.71v2.54h-1.56v-10.44
		h1.56v5.09l-0.08,1.43H68.2z"/>
	<path class="st2" d="M83.93,121.15c0,0.87-0.32,1.56-0.95,2.05c-0.63,0.5-1.5,0.74-2.61,0.74s-2.02-0.17-2.72-0.52v-1.52
		c0.45,0.21,0.92,0.38,1.43,0.5c0.5,0.12,0.97,0.18,1.41,0.18c0.63,0,1.1-0.12,1.41-0.36c0.3-0.24,0.45-0.57,0.45-0.97
		c0-0.37-0.14-0.68-0.42-0.93c-0.28-0.26-0.85-0.56-1.72-0.91c-0.89-0.36-1.53-0.78-1.89-1.24c-0.37-0.46-0.55-1.02-0.55-1.68
		c0-0.82,0.29-1.46,0.87-1.93c0.58-0.47,1.36-0.7,2.34-0.7c0.94,0,1.88,0.21,2.81,0.62l-0.51,1.31c-0.87-0.37-1.65-0.55-2.34-0.55
		c-0.52,0-0.91,0.11-1.18,0.34c-0.27,0.23-0.4,0.52-0.4,0.9c0,0.25,0.05,0.47,0.16,0.65s0.28,0.35,0.53,0.51s0.69,0.37,1.33,0.64
		c0.72,0.3,1.25,0.58,1.58,0.84c0.33,0.26,0.58,0.55,0.74,0.88C83.85,120.32,83.93,120.7,83.93,121.15z"/>
	<path class="st2" d="M92.19,123.81h-1.58v-4.56c0-0.57-0.12-1-0.35-1.28c-0.23-0.28-0.6-0.42-1.1-0.42c-0.66,0-1.15,0.2-1.46,0.59
		c-0.31,0.4-0.47,1.06-0.47,1.99v3.68h-1.58v-10.44h1.58v2.65c0,0.42-0.03,0.88-0.08,1.36h0.1c0.21-0.36,0.51-0.64,0.9-0.83
		c0.38-0.2,0.83-0.29,1.34-0.29c1.8,0,2.7,0.91,2.7,2.72V123.81z"/>
	<path class="st2" d="M97.63,123.94c-1.15,0-2.06-0.34-2.71-1.01c-0.65-0.67-0.98-1.6-0.98-2.78c0-1.21,0.3-2.17,0.91-2.86
		c0.6-0.69,1.43-1.04,2.49-1.04c0.98,0,1.75,0.3,2.32,0.89s0.85,1.41,0.85,2.46v0.85h-4.95c0.02,0.72,0.22,1.27,0.58,1.66
		s0.88,0.58,1.55,0.58c0.44,0,0.85-0.04,1.22-0.12c0.38-0.08,0.78-0.22,1.22-0.41v1.28c-0.38,0.18-0.77,0.31-1.17,0.39
		C98.58,123.91,98.13,123.94,97.63,123.94z M97.34,117.45c-0.5,0-0.9,0.16-1.2,0.48c-0.3,0.32-0.48,0.78-0.54,1.39h3.37
		c-0.01-0.61-0.16-1.08-0.44-1.39S97.84,117.45,97.34,117.45z"/>
	<path class="st2" d="M105.54,123.94c-1.15,0-2.06-0.34-2.71-1.01c-0.65-0.67-0.98-1.6-0.98-2.78c0-1.21,0.3-2.17,0.91-2.86
		c0.6-0.69,1.43-1.04,2.49-1.04c0.98,0,1.75,0.3,2.32,0.89s0.85,1.41,0.85,2.46v0.85h-4.95c0.02,0.72,0.22,1.27,0.58,1.66
		s0.88,0.58,1.55,0.58c0.44,0,0.85-0.04,1.22-0.12c0.38-0.08,0.78-0.22,1.22-0.41v1.28c-0.38,0.18-0.77,0.31-1.17,0.39
		C106.5,123.91,106.05,123.94,105.54,123.94z M105.26,117.45c-0.5,0-0.9,0.16-1.2,0.48c-0.3,0.32-0.48,0.78-0.54,1.39h3.37
		c-0.01-0.61-0.16-1.08-0.44-1.39S105.76,117.45,105.26,117.45z"/>
	<path class="st2" d="M112.99,122.67c0.38,0,0.77-0.06,1.15-0.18v1.19c-0.17,0.08-0.4,0.14-0.67,0.19
		c-0.27,0.05-0.56,0.08-0.86,0.08c-1.49,0-2.24-0.79-2.24-2.36v-4h-1.01v-0.7l1.09-0.58l0.54-1.57h0.97v1.65h2.11v1.19h-2.11v3.97
		c0,0.38,0.09,0.66,0.29,0.84C112.43,122.58,112.68,122.67,112.99,122.67z"/>
</g>
<g>
	<g>
		<path class="st1" d="M103.45,98.48H46.87c-1.16,0-2.09-0.94-2.09-2.09V24.03c0-1.16,0.94-2.09,2.09-2.09H91.5l14.05,12.04v62.41
			C105.55,97.54,104.61,98.48,103.45,98.48z"/>
		<path class="st1" d="M105.48,34.16H93.54c-1.18,0-2.15-0.96-2.15-2.15v-9.89"/>
		<line class="st1" x1="50.87" y1="29.43" x2="79.78" y2="29.43"/>
		<rect x="50.87" y="34.98" class="st1" width="18.63" height="14.53"/>
	</g>
	<line class="st1" x1="75.68" y1="39.46" x2="100.1" y2="39.46"/>
	<line class="st1" x1="75.68" y1="44.69" x2="100.1" y2="44.69"/>
	<g>
		<line class="st1" x1="64.53" y1="58.18" x2="100.1" y2="58.18"/>
		<polygon class="st3" points="55.06,53.49 56.23,57.07 59.99,57.07 56.95,59.29 58.11,62.87 55.06,60.66 52.02,62.87 53.18,59.29 
			50.13,57.07 53.9,57.07 		"/>
	</g>
	<line class="st1" x1="64.53" y1="86.83" x2="100.1" y2="86.83"/>
	<polygon class="st3" points="55.06,82.14 56.23,85.72 59.99,85.72 56.95,87.94 58.11,91.52 55.06,89.3 52.02,91.52 53.18,87.94 
		50.13,85.72 53.9,85.72 	"/>
	<g>
		<line class="st1" x1="64.53" y1="72.5" x2="100.1" y2="72.5"/>
		<polygon class="st3" points="55.06,67.82 56.23,71.4 59.99,71.4 56.95,73.61 58.11,77.19 55.06,74.98 52.02,77.19 53.18,73.61 
			50.13,71.4 53.9,71.4 		"/>
	</g>
</g>
</svg>
