<?xml version="1.0" encoding="utf-8"?>
<!-- Generator: Adobe Illustrator 26.5.2, SVG Export Plug-In . SVG Version: 6.00 Build 0)  -->
<svg version="1.1" id="Layer_1" xmlns="http://www.w3.org/2000/svg" xmlns:xlink="http://www.w3.org/1999/xlink" x="0px" y="0px"
	 viewBox="0 0 150 150" style="enable-background:new 0 0 150 150;" xml:space="preserve">
<style type="text/css">
	.st0{fill:#FFFFFF;}
	.st1{fill:none;stroke:#1D72B6;stroke-width:1.2;stroke-linecap:round;stroke-linejoin:round;stroke-miterlimit:10;}
	.st2{fill:#474848;}
	.st3{fill:#1D72B6;}
	.st4{fill:#FFFFFF;stroke:#1D72B6;stroke-width:1.2;stroke-linecap:round;stroke-linejoin:round;stroke-miterlimit:10;}
</style>
<path class="st0" d="M145.38,149.89h-141c-2.42,0-4.38-1.96-4.38-4.38v-141c0-2.42,1.96-4.38,4.38-4.38h141
	c2.42,0,4.38,1.96,4.38,4.38v141C149.76,147.93,147.8,149.89,145.38,149.89z"/>
<g>
	<path class="st2" d="M25.44,119.96v3.92h-1.6v-9.81h2.77c1.27,0,2.2,0.24,2.81,0.71c0.61,0.47,0.91,1.19,0.91,2.15
		c0,1.22-0.63,2.09-1.91,2.61l2.77,4.34h-1.83l-2.35-3.92H25.44z M25.44,118.63h1.11c0.75,0,1.29-0.14,1.62-0.42
		c0.33-0.28,0.5-0.69,0.5-1.23c0-0.55-0.18-0.95-0.54-1.2c-0.36-0.24-0.91-0.36-1.64-0.36h-1.06V118.63z"/>
	<path class="st2" d="M35.69,124.02c-1.15,0-2.06-0.34-2.71-1.01c-0.65-0.67-0.98-1.6-0.98-2.78c0-1.21,0.3-2.17,0.91-2.86
		c0.6-0.69,1.43-1.04,2.49-1.04c0.98,0,1.75,0.3,2.32,0.89s0.85,1.41,0.85,2.46v0.85h-4.95c0.02,0.72,0.22,1.27,0.58,1.66
		c0.37,0.39,0.88,0.58,1.55,0.58c0.44,0,0.85-0.04,1.22-0.12c0.38-0.08,0.78-0.22,1.22-0.41v1.28c-0.38,0.18-0.77,0.31-1.17,0.39
		C36.65,123.98,36.2,124.02,35.69,124.02z M35.4,117.52c-0.5,0-0.9,0.16-1.2,0.48c-0.3,0.32-0.48,0.78-0.54,1.39h3.37
		c-0.01-0.61-0.16-1.08-0.44-1.39C36.3,117.68,35.91,117.52,35.4,117.52z"/>
	<path class="st2" d="M46.62,123.88h-1.58v-4.58c0-0.57-0.11-0.99-0.32-1.27c-0.21-0.28-0.55-0.42-1.01-0.42
		c-0.61,0-1.05,0.2-1.34,0.59c-0.28,0.4-0.43,1.05-0.43,1.98v3.7h-1.58v-7.42h1.23l0.22,0.97h0.08c0.21-0.35,0.5-0.63,0.9-0.82
		c0.39-0.19,0.82-0.29,1.29-0.29c1.14,0,1.9,0.39,2.27,1.17h0.11c0.22-0.37,0.53-0.65,0.93-0.86c0.4-0.21,0.85-0.31,1.37-0.31
		c0.89,0,1.53,0.22,1.94,0.67s0.61,1.13,0.61,2.05v4.84h-1.58v-4.58c0-0.57-0.11-0.99-0.33-1.27c-0.22-0.28-0.55-0.42-1.01-0.42
		c-0.61,0-1.06,0.19-1.34,0.57c-0.28,0.38-0.43,0.97-0.43,1.76V123.88z"/>
	<path class="st2" d="M60.09,120.16c0,1.21-0.31,2.16-0.93,2.84c-0.62,0.68-1.49,1.02-2.6,1.02c-0.69,0-1.31-0.16-1.84-0.47
		c-0.53-0.31-0.94-0.76-1.23-1.35s-0.43-1.27-0.43-2.04c0-1.2,0.31-2.14,0.93-2.82c0.62-0.68,1.49-1.01,2.61-1.01
		c1.07,0,1.92,0.35,2.55,1.04C59.78,118.05,60.09,118.99,60.09,120.16z M54.69,120.16c0,1.71,0.63,2.57,1.9,2.57
		c1.25,0,1.88-0.86,1.88-2.57c0-1.7-0.63-2.54-1.89-2.54c-0.66,0-1.14,0.22-1.44,0.66S54.69,119.34,54.69,120.16z"/>
	<path class="st2" d="M64.67,122.74c0.38,0,0.77-0.06,1.15-0.18v1.19c-0.17,0.08-0.4,0.14-0.67,0.19c-0.28,0.05-0.56,0.08-0.86,0.08
		c-1.49,0-2.24-0.79-2.24-2.36v-4h-1.01v-0.7l1.09-0.58l0.54-1.57h0.97v1.65h2.11v1.19h-2.11v3.97c0,0.38,0.1,0.66,0.29,0.84
		C64.11,122.65,64.36,122.74,64.67,122.74z"/>
	<path class="st2" d="M70.55,124.02c-1.15,0-2.06-0.34-2.71-1.01c-0.65-0.67-0.98-1.6-0.98-2.78c0-1.21,0.3-2.17,0.91-2.86
		c0.6-0.69,1.43-1.04,2.49-1.04c0.98,0,1.75,0.3,2.32,0.89s0.85,1.41,0.85,2.46v0.85h-4.95c0.02,0.72,0.22,1.27,0.58,1.66
		c0.37,0.39,0.88,0.58,1.55,0.58c0.44,0,0.85-0.04,1.22-0.12c0.38-0.08,0.78-0.22,1.22-0.41v1.28c-0.38,0.18-0.77,0.31-1.17,0.39
		C71.51,123.98,71.05,124.02,70.55,124.02z M70.26,117.52c-0.5,0-0.9,0.16-1.2,0.48c-0.3,0.32-0.48,0.78-0.54,1.39h3.37
		c-0.01-0.61-0.16-1.08-0.44-1.39C71.16,117.68,70.76,117.52,70.26,117.52z"/>
	<path class="st2" d="M83.14,115.31c-0.92,0-1.65,0.33-2.17,0.98c-0.53,0.65-0.79,1.55-0.79,2.7c0,1.2,0.25,2.11,0.76,2.73
		s1.24,0.93,2.21,0.93c0.42,0,0.82-0.04,1.21-0.12c0.39-0.08,0.79-0.19,1.21-0.32v1.38c-0.77,0.29-1.64,0.44-2.62,0.44
		c-1.44,0-2.54-0.43-3.31-1.3c-0.77-0.87-1.15-2.12-1.15-3.73c0-1.02,0.19-1.91,0.56-2.68c0.37-0.77,0.91-1.35,1.62-1.76
		s1.54-0.61,2.49-0.61c1,0,1.93,0.21,2.78,0.63l-0.58,1.33c-0.33-0.16-0.68-0.29-1.05-0.41C83.93,115.37,83.55,115.31,83.14,115.31z
		"/>
	<path class="st2" d="M94.09,120.16c0,1.21-0.31,2.16-0.93,2.84c-0.62,0.68-1.49,1.02-2.6,1.02c-0.69,0-1.31-0.16-1.84-0.47
		c-0.53-0.31-0.94-0.76-1.23-1.35s-0.43-1.27-0.43-2.04c0-1.2,0.31-2.14,0.93-2.82c0.62-0.68,1.49-1.01,2.61-1.01
		c1.07,0,1.92,0.35,2.55,1.04C93.78,118.05,94.09,118.99,94.09,120.16z M88.69,120.16c0,1.71,0.63,2.57,1.9,2.57
		c1.25,0,1.88-0.86,1.88-2.57c0-1.7-0.63-2.54-1.89-2.54c-0.66,0-1.14,0.22-1.44,0.66S88.69,119.34,88.69,120.16z"/>
	<path class="st2" d="M102.43,123.88h-1.58v-4.56c0-0.57-0.12-1-0.35-1.28c-0.23-0.28-0.6-0.42-1.1-0.42c-0.67,0-1.15,0.2-1.46,0.59
		c-0.31,0.39-0.46,1.05-0.46,1.98v3.7H95.9v-7.42h1.23l0.22,0.97h0.08c0.22-0.35,0.54-0.63,0.95-0.82c0.41-0.19,0.87-0.29,1.37-0.29
		c1.78,0,2.67,0.91,2.67,2.72V123.88z"/>
	<path class="st2" d="M107.39,122.74c0.38,0,0.77-0.06,1.15-0.18v1.19c-0.17,0.08-0.4,0.14-0.67,0.19
		c-0.28,0.05-0.56,0.08-0.86,0.08c-1.49,0-2.24-0.79-2.24-2.36v-4h-1.01v-0.7l1.09-0.58l0.54-1.57h0.97v1.65h2.11v1.19h-2.11v3.97
		c0,0.38,0.1,0.66,0.29,0.84C106.83,122.65,107.08,122.74,107.39,122.74z"/>
	<path class="st2" d="M113.8,116.33c0.32,0,0.58,0.02,0.79,0.07l-0.15,1.47c-0.22-0.05-0.46-0.08-0.7-0.08
		c-0.63,0-1.14,0.21-1.53,0.62c-0.39,0.41-0.59,0.95-0.59,1.6v3.88h-1.58v-7.42h1.23l0.21,1.31h0.08c0.25-0.44,0.57-0.79,0.96-1.05
		C112.91,116.46,113.34,116.33,113.8,116.33z"/>
	<path class="st2" d="M122.54,120.16c0,1.21-0.31,2.16-0.93,2.84c-0.62,0.68-1.49,1.02-2.6,1.02c-0.69,0-1.31-0.16-1.84-0.47
		c-0.53-0.31-0.94-0.76-1.23-1.35s-0.43-1.27-0.43-2.04c0-1.2,0.31-2.14,0.93-2.82c0.62-0.68,1.49-1.01,2.61-1.01
		c1.07,0,1.92,0.35,2.55,1.04C122.23,118.05,122.54,118.99,122.54,120.16z M117.14,120.16c0,1.71,0.63,2.57,1.9,2.57
		c1.25,0,1.88-0.86,1.88-2.57c0-1.7-0.63-2.54-1.89-2.54c-0.66,0-1.14,0.22-1.44,0.66S117.14,119.34,117.14,120.16z"/>
	<path class="st2" d="M125.93,123.88h-1.58v-10.44h1.58V123.88z"/>
</g>
<g>
	<path class="st4" d="M66.69,97.55L44.09,83.1c-0.64-0.41-0.83-1.26-0.42-1.9l31.2-48.79c0.41-0.64,1.26-0.83,1.9-0.42l22.6,14.45
		c0.64,0.41,0.83,1.26,0.42,1.9l-31.2,48.79C68.18,97.77,67.33,97.95,66.69,97.55z"/>
	<circle class="st4" cx="80.77" cy="50.64" r="9.1"/>
	<g>
		<g>
			<circle class="st3" cx="65.31" cy="60.38" r="2.65"/>
			<circle class="st3" cx="71.86" cy="64.57" r="2.65"/>
			<circle class="st3" cx="78.4" cy="68.76" r="2.65"/>
		</g>
		<g>
			<circle class="st3" cx="60.74" cy="67.53" r="2.65"/>
			<circle class="st3" cx="67.29" cy="71.72" r="2.65"/>
			<circle class="st3" cx="73.83" cy="75.9" r="2.65"/>
		</g>
		<g>
			<circle class="st3" cx="56.17" cy="74.68" r="2.65"/>
			<circle class="st3" cx="62.72" cy="78.86" r="2.65"/>
			<circle class="st3" cx="69.26" cy="83.05" r="2.65"/>
		</g>
	</g>
	
		<rect x="50.14" y="84.54" transform="matrix(0.8425 0.5387 -0.5387 0.8425 55.3791 -17.9088)" class="st3" width="16.35" height="2.42"/>
	<path class="st1" d="M85.1,27.91c3.03-0.97,6.45-0.63,9.34,1.22c2.94,1.88,4.7,4.92,5.05,8.15"/>
	<path class="st1" d="M87.46,32.51c1.46-0.46,3.1-0.3,4.49,0.59c1.41,0.9,2.26,2.37,2.43,3.91"/>
	<path class="st1" d="M80.18,22.97c5.8-2.14,12.17-1.77,17.41,1.58c5.12,3.28,8.11,8.73,8.71,14.72"/>
</g>
</svg>
