<?xml version="1.0" encoding="utf-8"?>
<!-- Generator: Adobe Illustrator 26.5.2, SVG Export Plug-In . SVG Version: 6.00 Build 0)  -->
<svg version="1.1" id="Layer_1" xmlns="http://www.w3.org/2000/svg" xmlns:xlink="http://www.w3.org/1999/xlink" x="0px" y="0px"
	 viewBox="0 0 150 150" style="enable-background:new 0 0 150 150;" xml:space="preserve">
<style type="text/css">
	.st0{fill:#FFFFFF;}
	.st1{fill:none;stroke:#1D72B6;stroke-width:1.2;stroke-linecap:round;stroke-linejoin:round;stroke-miterlimit:10;}
	.st2{fill:#474848;}
	.st3{fill:#1D72B6;}
	.st4{fill:#FFFFFF;stroke:#1D72B6;stroke-width:1.2;stroke-linecap:round;stroke-linejoin:round;stroke-miterlimit:10;}
</style>
<path class="st0" d="M145.65,149.89h-141c-2.42,0-4.38-1.96-4.38-4.38v-141c0-2.42,1.96-4.38,4.38-4.38h141
	c2.42,0,4.38,1.96,4.38,4.38v141C150.03,147.93,148.07,149.89,145.65,149.89z"/>
<g>
	<g>
		<g>
			<path class="st2" d="M64.1,123.41h-1.74l-1.66-5.85c-0.07-0.26-0.16-0.62-0.27-1.1c-0.11-0.48-0.17-0.82-0.19-1
				c-0.04,0.29-0.12,0.66-0.22,1.11c-0.1,0.46-0.18,0.8-0.25,1.02l-1.62,5.83h-1.75l-1.27-4.91l-1.29-4.9h1.64l1.4,5.72
				c0.22,0.92,0.38,1.73,0.47,2.43c0.05-0.38,0.12-0.81,0.22-1.28c0.1-0.47,0.19-0.85,0.27-1.14l1.6-5.73h1.59l1.64,5.76
				c0.16,0.53,0.32,1.33,0.5,2.39c0.07-0.64,0.23-1.45,0.48-2.44l1.4-5.7h1.62L64.1,123.41z"/>
			<path class="st2" d="M67.79,114.02c0-0.28,0.08-0.5,0.23-0.65c0.15-0.15,0.37-0.23,0.66-0.23c0.28,0,0.49,0.08,0.65,0.23
				c0.15,0.15,0.23,0.37,0.23,0.65c0,0.27-0.08,0.48-0.23,0.63s-0.37,0.23-0.65,0.23c-0.29,0-0.51-0.08-0.66-0.23
				S67.79,114.29,67.79,114.02z M69.46,123.41h-1.58v-7.42h1.58V123.41z"/>
			<path class="st2" d="M75.48,115.85c0.32,0,0.58,0.02,0.79,0.07l-0.15,1.47c-0.22-0.05-0.46-0.08-0.7-0.08
				c-0.63,0-1.14,0.21-1.53,0.62c-0.39,0.41-0.59,0.95-0.59,1.6v3.88h-1.58v-7.42h1.23l0.21,1.31h0.08
				c0.25-0.44,0.57-0.79,0.96-1.05C74.6,115.98,75.02,115.85,75.48,115.85z"/>
			<path class="st2" d="M77.55,114.02c0-0.28,0.08-0.5,0.23-0.65c0.15-0.15,0.38-0.23,0.66-0.23c0.28,0,0.49,0.08,0.65,0.23
				c0.15,0.15,0.23,0.37,0.23,0.65c0,0.27-0.08,0.48-0.23,0.63s-0.37,0.23-0.65,0.23c-0.29,0-0.51-0.08-0.66-0.23
				S77.55,114.29,77.55,114.02z M79.22,123.41h-1.58v-7.42h1.58V123.41z"/>
			<path class="st2" d="M88,123.41h-1.58v-4.56c0-0.57-0.12-1-0.35-1.28c-0.23-0.28-0.6-0.42-1.1-0.42c-0.67,0-1.15,0.2-1.46,0.59
				c-0.31,0.39-0.46,1.05-0.46,1.98v3.7h-1.58v-7.42h1.23l0.22,0.97h0.08c0.22-0.35,0.54-0.63,0.95-0.82
				c0.41-0.19,0.87-0.29,1.37-0.29c1.78,0,2.67,0.91,2.67,2.72V123.41z"/>
			<path class="st2" d="M96.46,115.99v0.87l-1.27,0.24c0.12,0.16,0.21,0.35,0.29,0.58c0.08,0.23,0.11,0.47,0.11,0.72
				c0,0.76-0.26,1.37-0.79,1.8c-0.53,0.44-1.25,0.66-2.18,0.66c-0.24,0-0.45-0.02-0.64-0.05c-0.34,0.21-0.51,0.46-0.51,0.74
				c0,0.17,0.08,0.3,0.24,0.38s0.45,0.13,0.88,0.13h1.29c0.82,0,1.44,0.17,1.87,0.52c0.42,0.35,0.64,0.85,0.64,1.51
				c0,0.84-0.35,1.49-1.04,1.95s-1.7,0.68-3.01,0.68c-1.01,0-1.78-0.18-2.32-0.54c-0.53-0.36-0.8-0.87-0.8-1.53
				c0-0.46,0.14-0.84,0.43-1.15c0.29-0.31,0.69-0.53,1.21-0.65c-0.21-0.09-0.38-0.23-0.52-0.43c-0.14-0.2-0.2-0.41-0.2-0.63
				c0-0.28,0.08-0.51,0.23-0.71s0.39-0.38,0.7-0.57c-0.38-0.17-0.7-0.43-0.94-0.81c-0.24-0.37-0.36-0.81-0.36-1.31
				c0-0.81,0.25-1.43,0.76-1.87c0.51-0.44,1.23-0.66,2.17-0.66c0.21,0,0.43,0.01,0.66,0.04s0.4,0.06,0.52,0.09H96.46z M90.63,124.56
				c0,0.34,0.15,0.6,0.46,0.79s0.74,0.28,1.29,0.28c0.86,0,1.5-0.12,1.92-0.37c0.42-0.25,0.63-0.57,0.63-0.98
				c0-0.32-0.12-0.55-0.35-0.69s-0.66-0.2-1.29-0.2h-1.19c-0.45,0-0.81,0.11-1.08,0.32C90.76,123.91,90.63,124.2,90.63,124.56z
				 M91.31,118.39c0,0.46,0.12,0.82,0.36,1.07c0.24,0.25,0.58,0.38,1.03,0.38c0.91,0,1.37-0.49,1.37-1.46
				c0-0.48-0.11-0.86-0.34-1.12c-0.23-0.26-0.57-0.39-1.03-0.39c-0.46,0-0.8,0.13-1.04,0.39C91.43,117.51,91.31,117.89,91.31,118.39
				z"/>
		</g>
	</g>
</g>
<g>
	<rect x="65.67" y="56.2" class="st1" width="18.89" height="42.1"/>
	<rect x="72.65" y="28.34" class="st1" width="4.93" height="27.86"/>
	<path class="st1" d="M67.8,56.1c0-9.65-9.04-17.27-16.35-19.81c1.32-3.25,1.73-4.47,1.73-4.47c9.75,2.54,19.14,12.8,19.47,24.38"/>
	<line class="st1" x1="46.78" y1="31.62" x2="51.85" y2="33.85"/>
	<path class="st1" d="M82.5,56.1c0-9.65,9.04-17.27,16.35-19.81c-1.32-3.25-1.73-4.47-1.73-4.47c-9.75,2.54-19.14,12.8-19.47,24.38"
		/>
	<line class="st1" x1="103.52" y1="31.62" x2="98.45" y2="33.85"/>
	<line class="st1" x1="75.11" y1="21.97" x2="75.11" y2="27.96"/>
</g>
</svg>
